<svg xmlns="http://www.w3.org/2000/svg" xmlns:xlink="http://www.w3.org/1999/xlink" width="500" zoomAndPan="magnify" viewBox="0 0 375 374.999991" height="500" preserveAspectRatio="xMidYMid meet" version="1.2"><defs><clipPath id="caa44e3052"><path d="M 75.726562 187.125 L 176.839844 187.125 L 176.839844 230.847656 L 75.726562 230.847656 Z M 75.726562 187.125 "/></clipPath><clipPath id="b64ca8102e"><path d="M 92.976562 187.125 L 159.527344 187.125 C 164.101562 187.125 168.488281 188.945312 171.722656 192.179688 C 174.960938 195.414062 176.777344 199.800781 176.777344 204.375 L 176.777344 213.597656 C 176.777344 218.175781 174.960938 222.5625 171.722656 225.796875 C 168.488281 229.03125 164.101562 230.847656 159.527344 230.847656 L 92.976562 230.847656 C 88.402344 230.847656 84.015625 229.03125 80.78125 225.796875 C 77.546875 222.5625 75.726562 218.175781 75.726562 213.597656 L 75.726562 204.375 C 75.726562 199.800781 77.546875 195.414062 80.78125 192.179688 C 84.015625 188.945312 88.402344 187.125 92.976562 187.125 Z M 92.976562 187.125 "/></clipPath><clipPath id="affb29c9a8"><path d="M 0.726562 0.125 L 101.839844 0.125 L 101.839844 43.847656 L 0.726562 43.847656 Z M 0.726562 0.125 "/></clipPath><clipPath id="aabb89c464"><path d="M 17.976562 0.125 L 84.527344 0.125 C 89.101562 0.125 93.488281 1.945312 96.722656 5.179688 C 99.960938 8.414062 101.777344 12.800781 101.777344 17.375 L 101.777344 26.597656 C 101.777344 31.175781 99.960938 35.5625 96.722656 38.796875 C 93.488281 42.03125 89.101562 43.847656 84.527344 43.847656 L 17.976562 43.847656 C 13.402344 43.847656 9.015625 42.03125 5.78125 38.796875 C 2.546875 35.5625 0.726562 31.175781 0.726562 26.597656 L 0.726562 17.375 C 0.726562 12.800781 2.546875 8.414062 5.78125 5.179688 C 9.015625 1.945312 13.402344 0.125 17.976562 0.125 Z M 17.976562 0.125 "/></clipPath><clipPath id="cc8a58126a"><rect x="0" width="102" y="0" height="44"/></clipPath><clipPath id="48c29a7020"><path d="M 186.640625 187.125 L 299.367188 187.125 L 299.367188 230.847656 L 186.640625 230.847656 Z M 186.640625 187.125 "/></clipPath><clipPath id="fa92ba8a41"><path d="M 203.890625 187.125 L 282.023438 187.125 C 286.597656 187.125 290.984375 188.945312 294.21875 192.179688 C 297.453125 195.414062 299.273438 199.800781 299.273438 204.375 L 299.273438 213.597656 C 299.273438 218.175781 297.453125 222.5625 294.21875 225.796875 C 290.984375 229.03125 286.597656 230.847656 282.023438 230.847656 L 203.890625 230.847656 C 199.316406 230.847656 194.929688 229.03125 191.695312 225.796875 C 188.460938 222.5625 186.640625 218.175781 186.640625 213.597656 L 186.640625 204.375 C 186.640625 199.800781 188.460938 195.414062 191.695312 192.179688 C 194.929688 188.945312 199.316406 187.125 203.890625 187.125 Z M 203.890625 187.125 "/></clipPath><clipPath id="f5a510a667"><path d="M 0.640625 0.125 L 113.28125 0.125 L 113.28125 43.847656 L 0.640625 43.847656 Z M 0.640625 0.125 "/></clipPath><clipPath id="8b0f2e9817"><path d="M 17.890625 0.125 L 96.023438 0.125 C 100.597656 0.125 104.984375 1.945312 108.21875 5.179688 C 111.453125 8.414062 113.273438 12.800781 113.273438 17.375 L 113.273438 26.597656 C 113.273438 31.175781 111.453125 35.5625 108.21875 38.796875 C 104.984375 42.03125 100.597656 43.847656 96.023438 43.847656 L 17.890625 43.847656 C 13.316406 43.847656 8.929688 42.03125 5.695312 38.796875 C 2.460938 35.5625 0.640625 31.175781 0.640625 26.597656 L 0.640625 17.375 C 0.640625 12.800781 2.460938 8.414062 5.695312 5.179688 C 8.929688 1.945312 13.316406 0.125 17.890625 0.125 Z M 17.890625 0.125 "/></clipPath><clipPath id="181bc7c2ef"><rect x="0" width="114" y="0" height="44"/></clipPath><clipPath id="452b5227d9"><path d="M 241.519531 153.53125 L 269 153.53125 L 269 177.53125 L 241.519531 177.53125 Z M 241.519531 153.53125 "/></clipPath><clipPath id="deb7df707a"><path d="M 265 153.53125 L 299.269531 153.53125 L 299.269531 177.53125 L 265 177.53125 Z M 265 153.53125 "/></clipPath></defs><g id="3ab7950e9d"><g clip-rule="nonzero" clip-path="url(#caa44e3052)"><g clip-rule="nonzero" clip-path="url(#b64ca8102e)"><g transform="matrix(1,0,0,1,75,187)"><g clip-path="url(#cc8a58126a)"><g clip-rule="nonzero" clip-path="url(#affb29c9a8)"><g clip-rule="nonzero" clip-path="url(#aabb89c464)"><path style=" stroke:none;fill-rule:nonzero;fill:#04b3e3;fill-opacity:1;" d="M 0.726562 0.125 L 101.839844 0.125 L 101.839844 43.847656 L 0.726562 43.847656 Z M 0.726562 0.125 "/></g></g></g></g></g></g><g style="fill:#04b3e3;fill-opacity:1;"><g transform="translate(75.727792, 178.400422)"><path style="stroke:none" d="M 19.640625 -24.234375 C 19.828125 -23.941406 19.992188 -23.546875 20.140625 -23.046875 C 20.285156 -22.554688 20.359375 -22.046875 20.359375 -21.515625 C 20.359375 -20.472656 20.140625 -19.734375 19.703125 -19.296875 C 19.265625 -18.859375 18.671875 -18.640625 17.921875 -18.640625 L 9.515625 -18.640625 L 9.515625 -14.125 L 18.28125 -14.125 C 18.488281 -13.832031 18.664062 -13.441406 18.8125 -12.953125 C 18.96875 -12.472656 19.046875 -11.96875 19.046875 -11.4375 C 19.046875 -10.425781 18.820312 -9.695312 18.375 -9.25 C 17.9375 -8.8125 17.34375 -8.59375 16.59375 -8.59375 L 9.59375 -8.59375 L 9.59375 -0.15625 C 9.300781 -0.0820312 8.84375 -0.00390625 8.21875 0.078125 C 7.59375 0.160156 6.972656 0.203125 6.359375 0.203125 C 5.742188 0.203125 5.203125 0.15625 4.734375 0.0625 C 4.273438 -0.03125 3.882812 -0.195312 3.5625 -0.4375 C 3.238281 -0.675781 2.992188 -1.007812 2.828125 -1.4375 C 2.671875 -1.863281 2.59375 -2.425781 2.59375 -3.125 L 2.59375 -20.515625 C 2.59375 -21.660156 2.925781 -22.566406 3.59375 -23.234375 C 4.257812 -23.898438 5.164062 -24.234375 6.3125 -24.234375 Z M 19.640625 -24.234375 "/></g></g><g style="fill:#04b3e3;fill-opacity:1;"><g transform="translate(96.965679, 178.400422)"><path style="stroke:none" d="M 9.59375 -0.15625 C 9.300781 -0.0820312 8.84375 -0.00390625 8.21875 0.078125 C 7.59375 0.160156 6.972656 0.203125 6.359375 0.203125 C 5.742188 0.203125 5.203125 0.15625 4.734375 0.0625 C 4.273438 -0.03125 3.882812 -0.195312 3.5625 -0.4375 C 3.238281 -0.675781 2.992188 -1.007812 2.828125 -1.4375 C 2.671875 -1.863281 2.59375 -2.425781 2.59375 -3.125 L 2.59375 -24.234375 C 2.894531 -24.285156 3.363281 -24.359375 4 -24.453125 C 4.632812 -24.546875 5.25 -24.59375 5.84375 -24.59375 C 6.457031 -24.59375 6.992188 -24.546875 7.453125 -24.453125 C 7.921875 -24.359375 8.316406 -24.191406 8.640625 -23.953125 C 8.960938 -23.710938 9.203125 -23.378906 9.359375 -22.953125 C 9.515625 -22.523438 9.59375 -21.96875 9.59375 -21.28125 Z M 9.59375 -0.15625 "/></g></g><g style="fill:#04b3e3;fill-opacity:1;"><g transform="translate(109.164462, 178.400422)"><path style="stroke:none" d="M 24.5625 -0.84375 C 24.1875 -0.46875 23.644531 -0.179688 22.9375 0.015625 C 22.226562 0.210938 21.382812 0.3125 20.40625 0.3125 C 19.414062 0.3125 18.476562 0.164062 17.59375 -0.125 C 16.71875 -0.414062 16 -1.117188 15.4375 -2.234375 L 11.484375 -10.3125 C 11.078125 -11.144531 10.710938 -11.925781 10.390625 -12.65625 C 10.078125 -13.394531 9.734375 -14.242188 9.359375 -15.203125 L 9.125 -15.15625 C 9.226562 -13.71875 9.285156 -12.25 9.296875 -10.75 C 9.304688 -9.257812 9.3125 -7.796875 9.3125 -6.359375 L 9.3125 -0.15625 C 9.019531 -0.0820312 8.570312 -0.00390625 7.96875 0.078125 C 7.375 0.160156 6.785156 0.203125 6.203125 0.203125 C 5.609375 0.203125 5.082031 0.160156 4.625 0.078125 C 4.175781 -0.00390625 3.804688 -0.164062 3.515625 -0.40625 C 3.222656 -0.644531 2.992188 -0.96875 2.828125 -1.375 C 2.671875 -1.789062 2.59375 -2.332031 2.59375 -3 L 2.59375 -23 C 2.96875 -23.53125 3.539062 -23.925781 4.3125 -24.1875 C 5.09375 -24.457031 5.921875 -24.59375 6.796875 -24.59375 C 7.785156 -24.59375 8.722656 -24.441406 9.609375 -24.140625 C 10.503906 -23.835938 11.222656 -23.140625 11.765625 -22.046875 L 15.765625 -13.953125 C 16.160156 -13.128906 16.515625 -12.347656 16.828125 -11.609375 C 17.148438 -10.878906 17.5 -10.035156 17.875 -9.078125 L 18.078125 -9.125 C 17.972656 -10.5625 17.90625 -12 17.875 -13.4375 C 17.851562 -14.875 17.84375 -16.316406 17.84375 -17.765625 L 17.84375 -24.234375 C 18.132812 -24.316406 18.578125 -24.394531 19.171875 -24.46875 C 19.773438 -24.550781 20.367188 -24.59375 20.953125 -24.59375 C 22.128906 -24.59375 23.023438 -24.382812 23.640625 -23.96875 C 24.253906 -23.5625 24.5625 -22.707031 24.5625 -21.40625 Z M 24.5625 -0.84375 "/></g></g><g style="fill:#04b3e3;fill-opacity:1;"><g transform="translate(136.321759, 178.400422)"><path style="stroke:none" d="M 7.765625 -23.515625 C 8.210938 -23.785156 8.894531 -24.039062 9.8125 -24.28125 C 10.738281 -24.519531 11.664062 -24.640625 12.59375 -24.640625 C 13.925781 -24.640625 15.109375 -24.445312 16.140625 -24.0625 C 17.171875 -23.675781 17.832031 -23.066406 18.125 -22.234375 C 18.601562 -20.847656 19.117188 -19.234375 19.671875 -17.390625 C 20.234375 -15.554688 20.796875 -13.660156 21.359375 -11.703125 C 21.921875 -9.742188 22.46875 -7.8125 23 -5.90625 C 23.53125 -4 24 -2.3125 24.40625 -0.84375 C 24.082031 -0.46875 23.597656 -0.164062 22.953125 0.0625 C 22.316406 0.289062 21.5625 0.40625 20.6875 0.40625 C 20.039062 0.40625 19.5 0.347656 19.0625 0.234375 C 18.625 0.128906 18.265625 -0.0234375 17.984375 -0.234375 C 17.703125 -0.453125 17.472656 -0.734375 17.296875 -1.078125 C 17.128906 -1.421875 16.976562 -1.820312 16.84375 -2.28125 L 16.125 -5.046875 L 8.875 -5.046875 C 8.664062 -4.242188 8.453125 -3.414062 8.234375 -2.5625 C 8.023438 -1.707031 7.8125 -0.878906 7.59375 -0.078125 C 7.226562 0.0546875 6.835938 0.171875 6.421875 0.265625 C 6.003906 0.359375 5.503906 0.40625 4.921875 0.40625 C 3.554688 0.40625 2.546875 0.171875 1.890625 -0.296875 C 1.242188 -0.765625 0.921875 -1.410156 0.921875 -2.234375 C 0.921875 -2.609375 0.972656 -2.984375 1.078125 -3.359375 C 1.179688 -3.734375 1.300781 -4.175781 1.4375 -4.6875 C 1.625 -5.40625 1.882812 -6.296875 2.21875 -7.359375 C 2.550781 -8.421875 2.914062 -9.570312 3.3125 -10.8125 C 3.71875 -12.0625 4.144531 -13.335938 4.59375 -14.640625 C 5.050781 -15.941406 5.476562 -17.171875 5.875 -18.328125 C 6.28125 -19.492188 6.648438 -20.53125 6.984375 -21.4375 C 7.316406 -22.34375 7.578125 -23.035156 7.765625 -23.515625 Z M 12.5625 -18.359375 C 12.1875 -17.242188 11.765625 -16 11.296875 -14.625 C 10.828125 -13.25 10.410156 -11.851562 10.046875 -10.4375 L 15 -10.4375 C 14.625 -11.875 14.242188 -13.28125 13.859375 -14.65625 C 13.472656 -16.03125 13.117188 -17.265625 12.796875 -18.359375 Z M 12.5625 -18.359375 "/></g></g><g style="fill:#04b3e3;fill-opacity:1;"><g transform="translate(161.399265, 178.400422)"><path style="stroke:none" d="M 24.5625 -0.84375 C 24.1875 -0.46875 23.644531 -0.179688 22.9375 0.015625 C 22.226562 0.210938 21.382812 0.3125 20.40625 0.3125 C 19.414062 0.3125 18.476562 0.164062 17.59375 -0.125 C 16.71875 -0.414062 16 -1.117188 15.4375 -2.234375 L 11.484375 -10.3125 C 11.078125 -11.144531 10.710938 -11.925781 10.390625 -12.65625 C 10.078125 -13.394531 9.734375 -14.242188 9.359375 -15.203125 L 9.125 -15.15625 C 9.226562 -13.71875 9.285156 -12.25 9.296875 -10.75 C 9.304688 -9.257812 9.3125 -7.796875 9.3125 -6.359375 L 9.3125 -0.15625 C 9.019531 -0.0820312 8.570312 -0.00390625 7.96875 0.078125 C 7.375 0.160156 6.785156 0.203125 6.203125 0.203125 C 5.609375 0.203125 5.082031 0.160156 4.625 0.078125 C 4.175781 -0.00390625 3.804688 -0.164062 3.515625 -0.40625 C 3.222656 -0.644531 2.992188 -0.96875 2.828125 -1.375 C 2.671875 -1.789062 2.59375 -2.332031 2.59375 -3 L 2.59375 -23 C 2.96875 -23.53125 3.539062 -23.925781 4.3125 -24.1875 C 5.09375 -24.457031 5.921875 -24.59375 6.796875 -24.59375 C 7.785156 -24.59375 8.722656 -24.441406 9.609375 -24.140625 C 10.503906 -23.835938 11.222656 -23.140625 11.765625 -22.046875 L 15.765625 -13.953125 C 16.160156 -13.128906 16.515625 -12.347656 16.828125 -11.609375 C 17.148438 -10.878906 17.5 -10.035156 17.875 -9.078125 L 18.078125 -9.125 C 17.972656 -10.5625 17.90625 -12 17.875 -13.4375 C 17.851562 -14.875 17.84375 -16.316406 17.84375 -17.765625 L 17.84375 -24.234375 C 18.132812 -24.316406 18.578125 -24.394531 19.171875 -24.46875 C 19.773438 -24.550781 20.367188 -24.59375 20.953125 -24.59375 C 22.128906 -24.59375 23.023438 -24.382812 23.640625 -23.96875 C 24.253906 -23.5625 24.5625 -22.707031 24.5625 -21.40625 Z M 24.5625 -0.84375 "/></g></g><g style="fill:#04b3e3;fill-opacity:1;"><g transform="translate(188.556562, 178.400422)"><path style="stroke:none" d="M 14.953125 -19.359375 C 12.898438 -19.359375 11.328125 -18.726562 10.234375 -17.46875 C 9.140625 -16.21875 8.59375 -14.445312 8.59375 -12.15625 C 8.59375 -9.84375 9.195312 -8.054688 10.40625 -6.796875 C 11.625 -5.546875 13.257812 -4.921875 15.3125 -4.921875 C 16.40625 -4.921875 17.332031 -5.066406 18.09375 -5.359375 C 18.851562 -5.648438 19.582031 -5.984375 20.28125 -6.359375 C 20.726562 -5.984375 21.078125 -5.535156 21.328125 -5.015625 C 21.585938 -4.492188 21.71875 -3.890625 21.71875 -3.203125 C 21.71875 -2.109375 21.109375 -1.179688 19.890625 -0.421875 C 18.679688 0.335938 16.835938 0.71875 14.359375 0.71875 C 12.578125 0.71875 10.894531 0.46875 9.3125 -0.03125 C 7.738281 -0.539062 6.363281 -1.320312 5.1875 -2.375 C 4.019531 -3.425781 3.097656 -4.757812 2.421875 -6.375 C 1.742188 -7.988281 1.40625 -9.914062 1.40625 -12.15625 C 1.40625 -14.238281 1.726562 -16.070312 2.375 -17.65625 C 3.03125 -19.25 3.925781 -20.585938 5.0625 -21.671875 C 6.195312 -22.765625 7.519531 -23.59375 9.03125 -24.15625 C 10.550781 -24.71875 12.179688 -25 13.921875 -25 C 16.367188 -25 18.265625 -24.597656 19.609375 -23.796875 C 20.960938 -22.992188 21.640625 -21.96875 21.640625 -20.71875 C 21.640625 -20.03125 21.460938 -19.429688 21.109375 -18.921875 C 20.765625 -18.410156 20.367188 -18.007812 19.921875 -17.71875 C 19.222656 -18.175781 18.476562 -18.5625 17.6875 -18.875 C 16.90625 -19.195312 15.992188 -19.359375 14.953125 -19.359375 Z M 14.953125 -19.359375 "/></g></g><g style="fill:#04b3e3;fill-opacity:1;"><g transform="translate(211.394287, 178.400422)"><path style="stroke:none" d="M 2.59375 -20.515625 C 2.59375 -21.660156 2.925781 -22.566406 3.59375 -23.234375 C 4.257812 -23.898438 5.164062 -24.234375 6.3125 -24.234375 L 19.515625 -24.234375 C 19.703125 -23.941406 19.867188 -23.554688 20.015625 -23.078125 C 20.160156 -22.597656 20.234375 -22.09375 20.234375 -21.5625 C 20.234375 -20.550781 20.015625 -19.832031 19.578125 -19.40625 C 19.140625 -18.976562 18.5625 -18.765625 17.84375 -18.765625 L 9.40625 -18.765625 L 9.40625 -15.046875 L 18.40625 -15.046875 C 18.59375 -14.742188 18.757812 -14.359375 18.90625 -13.890625 C 19.050781 -13.429688 19.125 -12.9375 19.125 -12.40625 C 19.125 -11.382812 18.910156 -10.660156 18.484375 -10.234375 C 18.054688 -9.804688 17.484375 -9.59375 16.765625 -9.59375 L 9.40625 -9.59375 L 9.40625 -5.40625 L 19.6875 -5.40625 C 19.863281 -5.101562 20.023438 -4.710938 20.171875 -4.234375 C 20.328125 -3.753906 20.40625 -3.25 20.40625 -2.71875 C 20.40625 -1.707031 20.179688 -0.976562 19.734375 -0.53125 C 19.296875 -0.09375 18.71875 0.125 18 0.125 L 6.3125 0.125 C 5.164062 0.125 4.257812 -0.207031 3.59375 -0.875 C 2.925781 -1.539062 2.59375 -2.445312 2.59375 -3.59375 Z M 2.59375 -20.515625 "/></g></g><g clip-rule="nonzero" clip-path="url(#48c29a7020)"><g clip-rule="nonzero" clip-path="url(#fa92ba8a41)"><g transform="matrix(1,0,0,1,186,187)"><g clip-path="url(#181bc7c2ef)"><g clip-rule="nonzero" clip-path="url(#f5a510a667)"><g clip-rule="nonzero" clip-path="url(#8b0f2e9817)"><path style=" stroke:none;fill-rule:nonzero;fill:#ffd635;fill-opacity:1;" d="M 0.640625 0.125 L 113.195312 0.125 L 113.195312 43.847656 L 0.640625 43.847656 Z M 0.640625 0.125 "/></g></g></g></g></g></g><g clip-rule="nonzero" clip-path="url(#452b5227d9)"><path style=" stroke:none;fill-rule:nonzero;fill:#ffd635;fill-opacity:1;" d="M 252.683594 153.53125 L 235.078125 153.53125 L 251.089844 165.648438 L 235.078125 177.765625 L 252.683594 177.765625 L 268.695312 165.648438 Z M 252.683594 153.53125 "/></g><g clip-rule="nonzero" clip-path="url(#deb7df707a)"><path style=" stroke:none;fill-rule:nonzero;fill:#ffd635;fill-opacity:1;" d="M 283.226562 153.53125 L 265.621094 153.53125 L 281.628906 165.648438 L 265.621094 177.765625 L 283.226562 177.765625 L 299.234375 165.648438 Z M 283.226562 153.53125 "/></g><g style="fill:#ffffff;fill-opacity:1;"><g transform="translate(98.320487, 214.987807)"><path style="stroke:none" d="M 0.875 -7.59375 C 0.875 -8.894531 1.078125 -10.046875 1.484375 -11.046875 C 1.890625 -12.046875 2.445312 -12.882812 3.15625 -13.5625 C 3.863281 -14.238281 4.695312 -14.75 5.65625 -15.09375 C 6.613281 -15.445312 7.65625 -15.625 8.78125 -15.625 C 9.894531 -15.625 10.929688 -15.445312 11.890625 -15.09375 C 12.847656 -14.75 13.679688 -14.238281 14.390625 -13.5625 C 15.109375 -12.882812 15.671875 -12.046875 16.078125 -11.046875 C 16.492188 -10.046875 16.703125 -8.894531 16.703125 -7.59375 C 16.703125 -5.96875 16.398438 -4.582031 15.796875 -3.4375 C 15.203125 -2.289062 14.382812 -1.394531 13.34375 -0.75 C 13.59375 -0.632812 13.890625 -0.507812 14.234375 -0.375 C 14.578125 -0.238281 14.9375 -0.109375 15.3125 0.015625 C 15.6875 0.148438 16.070312 0.28125 16.46875 0.40625 C 16.875 0.53125 17.25 0.644531 17.59375 0.75 C 17.613281 0.851562 17.625 0.941406 17.625 1.015625 C 17.625 1.085938 17.625 1.15625 17.625 1.21875 C 17.625 2.175781 17.378906 2.867188 16.890625 3.296875 C 16.398438 3.734375 15.753906 3.953125 14.953125 3.953125 C 14.179688 3.953125 13.382812 3.738281 12.5625 3.3125 C 11.75 2.882812 10.921875 2.269531 10.078125 1.46875 L 8.96875 0.453125 L 8.78125 0.453125 C 7.644531 0.453125 6.59375 0.273438 5.625 -0.078125 C 4.65625 -0.441406 3.820312 -0.960938 3.125 -1.640625 C 2.425781 -2.328125 1.875 -3.171875 1.46875 -4.171875 C 1.070312 -5.171875 0.875 -6.3125 0.875 -7.59375 Z M 5.375 -7.59375 C 5.375 -6.082031 5.679688 -4.953125 6.296875 -4.203125 C 6.910156 -3.453125 7.738281 -3.078125 8.78125 -3.078125 C 9.820312 -3.078125 10.648438 -3.453125 11.265625 -4.203125 C 11.890625 -4.953125 12.203125 -6.082031 12.203125 -7.59375 C 12.203125 -9.09375 11.894531 -10.21875 11.28125 -10.96875 C 10.675781 -11.71875 9.847656 -12.09375 8.796875 -12.09375 C 7.765625 -12.09375 6.9375 -11.722656 6.3125 -10.984375 C 5.6875 -10.242188 5.375 -9.113281 5.375 -7.59375 Z M 5.375 -7.59375 "/></g></g><g style="fill:#ffffff;fill-opacity:1;"><g transform="translate(115.942693, 214.987807)"><path style="stroke:none" d="M 15.046875 -5.59375 C 15.046875 -4.695312 14.890625 -3.878906 14.578125 -3.140625 C 14.273438 -2.398438 13.832031 -1.765625 13.25 -1.234375 C 12.664062 -0.710938 11.957031 -0.304688 11.125 -0.015625 C 10.289062 0.265625 9.347656 0.40625 8.296875 0.40625 C 7.242188 0.40625 6.300781 0.265625 5.46875 -0.015625 C 4.632812 -0.304688 3.925781 -0.710938 3.34375 -1.234375 C 2.757812 -1.765625 2.3125 -2.398438 2 -3.140625 C 1.695312 -3.878906 1.546875 -4.695312 1.546875 -5.59375 L 1.546875 -15.15625 C 1.734375 -15.1875 2.023438 -15.226562 2.421875 -15.28125 C 2.828125 -15.34375 3.210938 -15.375 3.578125 -15.375 C 3.960938 -15.375 4.300781 -15.34375 4.59375 -15.28125 C 4.882812 -15.226562 5.128906 -15.125 5.328125 -14.96875 C 5.523438 -14.820312 5.671875 -14.613281 5.765625 -14.34375 C 5.867188 -14.082031 5.921875 -13.734375 5.921875 -13.296875 L 5.921875 -5.671875 C 5.921875 -4.867188 6.140625 -4.242188 6.578125 -3.796875 C 7.023438 -3.347656 7.597656 -3.125 8.296875 -3.125 C 9.015625 -3.125 9.585938 -3.347656 10.015625 -3.796875 C 10.453125 -4.242188 10.671875 -4.867188 10.671875 -5.671875 L 10.671875 -15.15625 C 10.859375 -15.1875 11.148438 -15.226562 11.546875 -15.28125 C 11.953125 -15.34375 12.335938 -15.375 12.703125 -15.375 C 13.085938 -15.375 13.425781 -15.34375 13.71875 -15.28125 C 14.007812 -15.226562 14.253906 -15.125 14.453125 -14.96875 C 14.648438 -14.820312 14.796875 -14.613281 14.890625 -14.34375 C 14.992188 -14.082031 15.046875 -13.734375 15.046875 -13.296875 Z M 15.046875 -5.59375 "/></g></g><g style="fill:#ffffff;fill-opacity:1;"><g transform="translate(132.54007, 214.987807)"><path style="stroke:none" d="M 6 -0.09375 C 5.8125 -0.0507812 5.519531 -0.00390625 5.125 0.046875 C 4.738281 0.0976562 4.351562 0.125 3.96875 0.125 C 3.59375 0.125 3.257812 0.09375 2.96875 0.03125 C 2.675781 -0.0195312 2.425781 -0.117188 2.21875 -0.265625 C 2.019531 -0.421875 1.867188 -0.628906 1.765625 -0.890625 C 1.671875 -1.160156 1.625 -1.515625 1.625 -1.953125 L 1.625 -15.15625 C 1.8125 -15.1875 2.101562 -15.226562 2.5 -15.28125 C 2.894531 -15.34375 3.28125 -15.375 3.65625 -15.375 C 4.03125 -15.375 4.363281 -15.34375 4.65625 -15.28125 C 4.945312 -15.226562 5.191406 -15.125 5.390625 -14.96875 C 5.597656 -14.820312 5.75 -14.613281 5.84375 -14.34375 C 5.945312 -14.082031 6 -13.734375 6 -13.296875 Z M 6 -0.09375 "/></g></g><g style="fill:#ffffff;fill-opacity:1;"><g transform="translate(140.16386, 214.987807)"><path style="stroke:none" d="M 7.703125 -11.65625 L 1.546875 -11.65625 C 1.429688 -11.832031 1.320312 -12.078125 1.21875 -12.390625 C 1.125 -12.710938 1.078125 -13.050781 1.078125 -13.40625 C 1.078125 -14.050781 1.222656 -14.515625 1.515625 -14.796875 C 1.804688 -15.078125 2.1875 -15.21875 2.65625 -15.21875 L 11.96875 -15.21875 C 12.707031 -14.625 13.078125 -13.828125 13.078125 -12.828125 C 13.078125 -12.410156 12.976562 -11.992188 12.78125 -11.578125 C 12.59375 -11.171875 12.347656 -10.785156 12.046875 -10.421875 L 6.375 -3.578125 L 12.78125 -3.578125 C 12.894531 -3.390625 13 -3.132812 13.09375 -2.8125 C 13.195312 -2.5 13.25 -2.171875 13.25 -1.828125 C 13.25 -1.171875 13.101562 -0.703125 12.8125 -0.421875 C 12.519531 -0.140625 12.140625 0 11.671875 0 L 1.828125 0 C 1.546875 -0.226562 1.3125 -0.539062 1.125 -0.9375 C 0.9375 -1.34375 0.84375 -1.804688 0.84375 -2.328125 C 0.84375 -2.742188 0.953125 -3.164062 1.171875 -3.59375 C 1.390625 -4.03125 1.648438 -4.429688 1.953125 -4.796875 Z M 7.703125 -11.65625 "/></g></g><g style="fill:#ffffff;fill-opacity:1;"><g transform="translate(213.548897, 214.987807)"><path style="stroke:none" d="M 5.96875 -4.90625 L 5.96875 -0.09375 C 5.789062 -0.0507812 5.503906 -0.00390625 5.109375 0.046875 C 4.722656 0.0976562 4.335938 0.125 3.953125 0.125 C 3.566406 0.125 3.226562 0.09375 2.9375 0.03125 C 2.644531 -0.0195312 2.398438 -0.117188 2.203125 -0.265625 C 2.015625 -0.421875 1.867188 -0.628906 1.765625 -0.890625 C 1.671875 -1.160156 1.625 -1.515625 1.625 -1.953125 L 1.625 -13.71875 C 1.625 -14.070312 1.71875 -14.34375 1.90625 -14.53125 C 2.101562 -14.726562 2.367188 -14.882812 2.703125 -15 C 3.265625 -15.195312 3.921875 -15.34375 4.671875 -15.4375 C 5.421875 -15.53125 6.222656 -15.578125 7.078125 -15.578125 C 9.378906 -15.578125 11.113281 -15.09375 12.28125 -14.125 C 13.445312 -13.15625 14.03125 -11.847656 14.03125 -10.203125 C 14.03125 -9.171875 13.757812 -8.285156 13.21875 -7.546875 C 12.6875 -6.816406 12.054688 -6.25 11.328125 -5.84375 C 11.921875 -5.03125 12.507812 -4.265625 13.09375 -3.546875 C 13.675781 -2.828125 14.132812 -2.175781 14.46875 -1.59375 C 14.300781 -1.007812 14 -0.5625 13.5625 -0.25 C 13.125 0.0507812 12.628906 0.203125 12.078125 0.203125 C 11.710938 0.203125 11.394531 0.160156 11.125 0.078125 C 10.851562 -0.00390625 10.617188 -0.117188 10.421875 -0.265625 C 10.222656 -0.421875 10.039062 -0.609375 9.875 -0.828125 C 9.707031 -1.046875 9.550781 -1.28125 9.40625 -1.53125 L 7.296875 -4.90625 Z M 7.546875 -8.21875 C 8.179688 -8.21875 8.679688 -8.378906 9.046875 -8.703125 C 9.410156 -9.035156 9.59375 -9.519531 9.59375 -10.15625 C 9.59375 -10.78125 9.390625 -11.253906 8.984375 -11.578125 C 8.578125 -11.910156 7.929688 -12.078125 7.046875 -12.078125 C 6.796875 -12.078125 6.59375 -12.066406 6.4375 -12.046875 C 6.289062 -12.035156 6.128906 -12.007812 5.953125 -11.96875 L 5.953125 -8.21875 Z M 7.546875 -8.21875 "/></g></g><g style="fill:#ffffff;fill-opacity:1;"><g transform="translate(228.971469, 214.987807)"><path style="stroke:none" d="M 4.84375 -14.703125 C 5.132812 -14.867188 5.566406 -15.023438 6.140625 -15.171875 C 6.710938 -15.328125 7.289062 -15.40625 7.875 -15.40625 C 8.707031 -15.40625 9.441406 -15.28125 10.078125 -15.03125 C 10.722656 -14.789062 11.140625 -14.414062 11.328125 -13.90625 C 11.628906 -13.03125 11.953125 -12.019531 12.296875 -10.875 C 12.648438 -9.726562 13 -8.539062 13.34375 -7.3125 C 13.695312 -6.082031 14.039062 -4.875 14.375 -3.6875 C 14.707031 -2.5 15 -1.445312 15.25 -0.53125 C 15.050781 -0.289062 14.75 -0.101562 14.34375 0.03125 C 13.945312 0.175781 13.472656 0.25 12.921875 0.25 C 12.523438 0.25 12.1875 0.210938 11.90625 0.140625 C 11.632812 0.078125 11.410156 -0.015625 11.234375 -0.140625 C 11.054688 -0.273438 10.914062 -0.453125 10.8125 -0.671875 C 10.707031 -0.890625 10.613281 -1.140625 10.53125 -1.421875 L 10.078125 -3.15625 L 5.546875 -3.15625 C 5.410156 -2.65625 5.273438 -2.132812 5.140625 -1.59375 C 5.015625 -1.0625 4.882812 -0.546875 4.75 -0.046875 C 4.519531 0.0351562 4.273438 0.101562 4.015625 0.15625 C 3.753906 0.21875 3.441406 0.25 3.078125 0.25 C 2.222656 0.25 1.59375 0.101562 1.1875 -0.1875 C 0.78125 -0.476562 0.578125 -0.882812 0.578125 -1.40625 C 0.578125 -1.632812 0.609375 -1.863281 0.671875 -2.09375 C 0.742188 -2.332031 0.820312 -2.609375 0.90625 -2.921875 C 1.019531 -3.367188 1.179688 -3.925781 1.390625 -4.59375 C 1.597656 -5.257812 1.828125 -5.976562 2.078125 -6.75 C 2.328125 -7.53125 2.59375 -8.328125 2.875 -9.140625 C 3.15625 -9.960938 3.421875 -10.734375 3.671875 -11.453125 C 3.921875 -12.179688 4.148438 -12.828125 4.359375 -13.390625 C 4.566406 -13.960938 4.726562 -14.398438 4.84375 -14.703125 Z M 7.84375 -11.46875 C 7.613281 -10.769531 7.351562 -9.988281 7.0625 -9.125 C 6.769531 -8.269531 6.507812 -7.40625 6.28125 -6.53125 L 9.375 -6.53125 C 9.144531 -7.425781 8.90625 -8.300781 8.65625 -9.15625 C 8.414062 -10.019531 8.195312 -10.789062 8 -11.46875 Z M 7.84375 -11.46875 "/></g></g><g style="fill:#ffffff;fill-opacity:1;"><g transform="translate(244.394018, 214.987807)"><path style="stroke:none" d="M 9.34375 -12.09375 C 8.0625 -12.09375 7.078125 -11.703125 6.390625 -10.921875 C 5.710938 -10.140625 5.375 -9.03125 5.375 -7.59375 C 5.375 -6.144531 5.753906 -5.03125 6.515625 -4.25 C 7.273438 -3.46875 8.296875 -3.078125 9.578125 -3.078125 C 10.253906 -3.078125 10.832031 -3.164062 11.3125 -3.34375 C 11.789062 -3.53125 12.242188 -3.738281 12.671875 -3.96875 C 12.953125 -3.738281 13.171875 -3.460938 13.328125 -3.140625 C 13.492188 -2.816406 13.578125 -2.4375 13.578125 -2 C 13.578125 -1.3125 13.195312 -0.726562 12.4375 -0.25 C 11.675781 0.21875 10.519531 0.453125 8.96875 0.453125 C 7.851562 0.453125 6.800781 0.296875 5.8125 -0.015625 C 4.832031 -0.335938 3.976562 -0.828125 3.25 -1.484375 C 2.519531 -2.140625 1.941406 -2.972656 1.515625 -3.984375 C 1.085938 -4.992188 0.875 -6.195312 0.875 -7.59375 C 0.875 -8.894531 1.078125 -10.039062 1.484375 -11.03125 C 1.890625 -12.03125 2.445312 -12.867188 3.15625 -13.546875 C 3.863281 -14.234375 4.691406 -14.75 5.640625 -15.09375 C 6.597656 -15.445312 7.617188 -15.625 8.703125 -15.625 C 10.234375 -15.625 11.421875 -15.375 12.265625 -14.875 C 13.109375 -14.375 13.53125 -13.734375 13.53125 -12.953125 C 13.53125 -12.515625 13.421875 -12.132812 13.203125 -11.8125 C 12.984375 -11.5 12.734375 -11.253906 12.453125 -11.078125 C 12.015625 -11.359375 11.550781 -11.597656 11.0625 -11.796875 C 10.570312 -11.992188 10 -12.09375 9.34375 -12.09375 Z M 9.34375 -12.09375 "/></g></g><g style="fill:#ffffff;fill-opacity:1;"><g transform="translate(258.666756, 214.987807)"><path style="stroke:none" d="M 1.625 -12.828125 C 1.625 -13.546875 1.832031 -14.113281 2.25 -14.53125 C 2.664062 -14.945312 3.234375 -15.15625 3.953125 -15.15625 L 12.203125 -15.15625 C 12.316406 -14.96875 12.421875 -14.722656 12.515625 -14.421875 C 12.609375 -14.117188 12.65625 -13.800781 12.65625 -13.46875 C 12.65625 -12.84375 12.515625 -12.394531 12.234375 -12.125 C 11.960938 -11.851562 11.601562 -11.71875 11.15625 -11.71875 L 5.875 -11.71875 L 5.875 -9.40625 L 11.5 -9.40625 C 11.613281 -9.21875 11.71875 -8.976562 11.8125 -8.6875 C 11.90625 -8.394531 11.953125 -8.082031 11.953125 -7.75 C 11.953125 -7.113281 11.816406 -6.660156 11.546875 -6.390625 C 11.285156 -6.128906 10.925781 -6 10.46875 -6 L 5.875 -6 L 5.875 -3.375 L 12.296875 -3.375 C 12.410156 -3.1875 12.515625 -2.941406 12.609375 -2.640625 C 12.703125 -2.347656 12.75 -2.035156 12.75 -1.703125 C 12.75 -1.066406 12.609375 -0.609375 12.328125 -0.328125 C 12.054688 -0.0546875 11.695312 0.078125 11.25 0.078125 L 3.953125 0.078125 C 3.234375 0.078125 2.664062 -0.128906 2.25 -0.546875 C 1.832031 -0.960938 1.625 -1.53125 1.625 -2.25 Z M 1.625 -12.828125 "/></g></g></g></svg>